<svg width="32" height="32" viewBox="0 0 32 32" fill="none" xmlns="http://www.w3.org/2000/svg">
<path fill-rule="evenodd" clip-rule="evenodd" d="M25.972 8.10398C26.5448 7.53121 26.5448 6.60257 25.972 6.0298C25.3992 5.45703 24.4706 5.45703 23.8978 6.0298L16.0016 13.926L8.10532 6.0298C7.53255 5.45703 6.60391 5.45703 6.03114 6.0298C5.45837 6.60257 5.45837 7.53121 6.03114 8.10398L13.9274 16.0002L6.03114 23.8965C5.45837 24.4692 5.45837 25.3979 6.03114 25.9706C6.60391 26.5434 7.53255 26.5434 8.10532 25.9706L16.0016 18.0744L23.8978 25.9706C24.4706 26.5434 25.3992 26.5434 25.972 25.9706C26.5448 25.3979 26.5448 24.4692 25.972 23.8965L18.0757 16.0002L25.972 8.10398Z" fill="#A0A0A0"/>
</svg>
