<svg width="30" height="30" viewBox="0 0 30 30" fill="none" xmlns="http://www.w3.org/2000/svg">
<path d="M4.92539 22.1792H0.00424861C0.00424861 18.8537 0.00800521 15.5282 2.24329e-05 12.2031C-0.00138629 11.7209 0.0634151 11.2696 0.233401 10.8113C0.749464 9.42089 1.22608 8.01592 1.72008 6.61706C2.15396 5.38865 2.57423 4.15554 3.03489 2.937C3.17435 2.56838 3.38284 2.20493 3.63829 1.90628C4.1891 1.26296 4.92915 0.999531 5.77251 1C9.83292 1.00235 13.8929 1 17.9533 1.00329C18.1838 1.00329 18.4153 1.02442 18.645 1.04931C19.6283 1.1559 20.3636 1.66914 20.7717 2.54537C21.1384 3.33285 21.391 4.17433 21.685 4.99514C22.2828 6.66636 22.8735 8.33993 23.4698 10.0116C23.6417 10.4929 23.823 10.9705 24 11.4499V22.1792H19.0789V18.6786H4.92539V22.1792ZM21.2924 8.11641C21.1948 7.84734 21.1037 7.59988 21.0154 7.35147C20.5594 6.06718 20.0828 4.78947 19.6564 3.49532C19.4104 2.74776 18.8408 2.41107 18.1538 2.4092C15.8501 2.40309 13.5468 2.40685 11.2431 2.40685C9.39997 2.40685 7.55736 2.40168 5.71428 2.41013C5.07895 2.41295 4.57744 2.7872 4.37317 3.36478C3.93835 4.5946 3.50352 5.82488 3.06963 7.05517C2.94661 7.40359 2.82639 7.75249 2.69914 8.11735H21.292L21.2924 8.11641ZM22.588 15.8667H1.42377V17.2459H22.588V15.8667ZM22.2851 10.9259C22.1414 10.5272 21.9874 10.1497 21.8724 9.75992C21.8151 9.56552 21.7282 9.52373 21.5371 9.52373C15.18 9.52936 8.82287 9.52842 2.46576 9.52842C2.42679 9.52842 2.3803 9.5148 2.35024 9.53124C2.27277 9.5735 2.16148 9.61388 2.13612 9.68244C1.98163 10.0928 1.84733 10.5103 1.70599 10.9263H22.2851V10.9259ZM16.4441 12.3506H7.54374C7.76773 13.0221 7.98374 13.6795 8.21242 14.3331C8.2312 14.3862 8.33263 14.4435 8.39602 14.4435C10.8007 14.4491 13.2049 14.4491 15.6096 14.4435C15.6679 14.4435 15.7613 14.3913 15.7782 14.343C16.0064 13.6809 16.2238 13.0155 16.4441 12.3506ZM17.2456 14.4345H22.58V12.3398C21.0689 12.3398 19.571 12.3384 18.073 12.3445C18.0176 12.3445 17.9298 12.4041 17.9124 12.4548C17.6856 13.1085 17.4692 13.7659 17.2456 14.4345ZM1.42377 12.3398V14.443H6.74547C6.52336 13.772 6.30501 13.1066 6.0782 12.444C6.06224 12.398 5.98241 12.3445 5.93169 12.3445C4.43375 12.3393 2.93534 12.3402 1.42377 12.3402V12.3398ZM1.42236 18.6715V20.7611H3.50681V18.6715H1.42283H1.42236ZM22.5875 18.6781H20.4974V20.7607H22.5875V18.6781Z" fill="white"/>
<g opacity="0.2">
<path d="M21.294 8.11636H2.70117C2.82843 7.75197 2.94864 7.40261 3.07167 7.05418C3.50555 5.82389 3.94038 4.59408 4.37521 3.36379C4.57947 2.78622 5.08098 2.41243 5.71631 2.40915C7.55893 2.40069 9.40201 2.40586 11.2451 2.40586C13.5488 2.40586 15.8521 2.4021 18.1558 2.40821C18.8428 2.41009 19.4124 2.74677 19.6585 3.49433C20.0848 4.78848 20.5615 6.0662 21.0174 7.35048C21.1057 7.59889 21.1968 7.84635 21.2945 8.11542L21.294 8.11636Z" fill="white"/>
<path d="M22.5885 15.8672V17.2463H1.42383V15.8672H22.588H22.5885Z" fill="white"/>
<path d="M22.2862 10.9259H1.70703C1.84837 10.5104 1.98267 10.0924 2.13716 9.68202C2.16299 9.61393 2.27381 9.57355 2.35129 9.53082C2.38134 9.51438 2.42783 9.528 2.4668 9.528C8.82391 9.528 15.181 9.52894 21.5381 9.52331C21.7288 9.52331 21.8156 9.5651 21.8734 9.7595C21.9884 10.1488 22.1425 10.5268 22.2862 10.9255V10.9259Z" fill="white"/>
<path d="M16.4452 12.3506C16.225 13.0155 16.0076 13.6814 15.7794 14.343C15.7625 14.3914 15.669 14.4435 15.6108 14.4435C13.2061 14.4486 10.8019 14.4486 8.3972 14.4435C8.33381 14.4435 8.23238 14.3862 8.2136 14.3331C7.98538 13.6795 7.76938 13.0221 7.54492 12.3506H16.4452Z" fill="white"/>
<path d="M17.248 14.4345C17.4716 13.7658 17.688 13.1084 17.9148 12.4548C17.9327 12.4041 18.02 12.3449 18.0754 12.3444C19.5734 12.3383 21.0713 12.3397 22.5824 12.3397V14.4345H17.248Z" fill="white"/>
<path d="M1.42383 12.3396C2.93539 12.3396 4.43333 12.3386 5.93175 12.3438C5.98199 12.3438 6.06229 12.3978 6.07826 12.4434C6.30506 13.1059 6.52341 13.7718 6.74552 14.4423H1.42383V12.3391V12.3396Z" fill="white"/>
<path d="M1.42383 18.6714H3.50827V20.761H1.42383V18.6714Z" fill="white"/>
<path d="M22.5901 18.678V20.7605H20.5V18.678H22.5901Z" fill="white"/>
</g>
<rect x="14" y="14" width="16" height="16" rx="8" fill="#D72E36"/>
<path d="M23.2763 17.7227V25.5H22.0839V18.9043H22.0409L20.1825 20.1182V18.9902L22.1161 17.7227H23.2763Z" fill="white"/>
</svg>
