<svg width="30" height="29" viewBox="0 0 30 29" fill="none" xmlns="http://www.w3.org/2000/svg">
<path d="M4.92539 21.1792H0.00424861C0.00424861 17.8537 0.00800521 14.5282 2.24329e-05 11.2031C-0.00138629 10.7209 0.0634151 10.2696 0.233401 9.8113C0.749464 8.42089 1.22608 7.01592 1.72008 5.61706C2.15396 4.38865 2.57423 3.15554 3.03489 1.937C3.17435 1.56838 3.38284 1.20493 3.63829 0.90628C4.1891 0.262963 4.92915 -0.000468948 5.77251 6.26575e-07C9.83292 0.0023485 13.8929 6.266e-07 17.9533 0.00328765C18.1838 0.00328765 18.4153 0.0244185 18.645 0.049306C19.6283 0.1559 20.3636 0.669145 20.7717 1.54537C21.1384 2.33285 21.391 3.17433 21.685 3.99514C22.2828 5.66636 22.8735 7.33993 23.4698 9.01161C23.6417 9.49293 23.823 9.97049 24 10.4499V21.1792H19.0789V17.6786H4.92539V21.1792ZM21.2924 7.11641C21.1948 6.84734 21.1037 6.59988 21.0154 6.35147C20.5594 5.06718 20.0828 3.78947 19.6564 2.49532C19.4104 1.74776 18.8408 1.41107 18.1538 1.4092C15.8501 1.40309 13.5468 1.40685 11.2431 1.40685C9.39997 1.40685 7.55736 1.40168 5.71428 1.41013C5.07895 1.41295 4.57744 1.7872 4.37317 2.36478C3.93835 3.5946 3.50352 4.82488 3.06963 6.05517C2.94661 6.40359 2.82639 6.75249 2.69914 7.11735H21.292L21.2924 7.11641ZM22.588 14.8667H1.42377V16.2459H22.588V14.8667ZM22.2851 9.92588C22.1414 9.52721 21.9874 9.14967 21.8724 8.75992C21.8151 8.56552 21.7282 8.52373 21.5371 8.52373C15.18 8.52936 8.82287 8.52842 2.46576 8.52842C2.42679 8.52842 2.3803 8.5148 2.35024 8.53124C2.27277 8.5735 2.16148 8.61388 2.13612 8.68244C1.98163 9.09285 1.84733 9.5103 1.70599 9.92635H22.2851V9.92588ZM16.4441 11.3506H7.54374C7.76773 12.0221 7.98374 12.6795 8.21242 13.3331C8.2312 13.3862 8.33263 13.4435 8.39602 13.4435C10.8007 13.4491 13.2049 13.4491 15.6096 13.4435C15.6679 13.4435 15.7613 13.3913 15.7782 13.343C16.0064 12.6809 16.2238 12.0155 16.4441 11.3506ZM17.2456 13.4345H22.58V11.3398C21.0689 11.3398 19.571 11.3384 18.073 11.3445C18.0176 11.3445 17.9298 11.4041 17.9124 11.4548C17.6856 12.1085 17.4692 12.7659 17.2456 13.4345ZM1.42377 11.3398V13.443H6.74547C6.52336 12.772 6.30501 12.1066 6.0782 11.444C6.06224 11.398 5.98241 11.3445 5.93169 11.3445C4.43375 11.3393 2.93534 11.3402 1.42377 11.3402V11.3398ZM1.42236 17.6715V19.7611H3.50681V17.6715H1.42283H1.42236ZM22.5875 17.6781H20.4974V19.7607H22.5875V17.6781Z" fill="white"/>
<g opacity="0.2">
<path d="M21.294 7.11636H2.70117C2.82843 6.75197 2.94864 6.40261 3.07167 6.05418C3.50555 4.82389 3.94038 3.59408 4.37521 2.36379C4.57947 1.78622 5.08098 1.41243 5.71631 1.40915C7.55893 1.40069 9.40201 1.40586 11.2451 1.40586C13.5488 1.40586 15.8521 1.4021 18.1558 1.40821C18.8428 1.41009 19.4124 1.74677 19.6585 2.49433C20.0848 3.78848 20.5615 5.0662 21.0174 6.35048C21.1057 6.59889 21.1968 6.84635 21.2945 7.11542L21.294 7.11636Z" fill="white"/>
<path d="M22.5885 14.8672V16.2463H1.42383V14.8672H22.588H22.5885Z" fill="white"/>
<path d="M22.2862 9.92593H1.70703C1.84837 9.51035 1.98267 9.09243 2.13716 8.68202C2.16299 8.61393 2.27381 8.57355 2.35129 8.53082C2.38134 8.51438 2.42783 8.528 2.4668 8.528C8.82391 8.528 15.181 8.52894 21.5381 8.52331C21.7288 8.52331 21.8156 8.5651 21.8734 8.7595C21.9884 9.14878 22.1425 9.52679 22.2862 9.92546V9.92593Z" fill="white"/>
<path d="M16.4452 11.3506C16.225 12.0155 16.0076 12.6814 15.7794 13.343C15.7625 13.3914 15.669 13.4435 15.6108 13.4435C13.2061 13.4486 10.8019 13.4486 8.3972 13.4435C8.33381 13.4435 8.23238 13.3862 8.2136 13.3331C7.98538 12.6795 7.76938 12.0221 7.54492 11.3506H16.4452Z" fill="white"/>
<path d="M17.248 13.4345C17.4716 12.7658 17.688 12.1084 17.9148 11.4548C17.9327 11.4041 18.02 11.3449 18.0754 11.3444C19.5734 11.3383 21.0713 11.3397 22.5824 11.3397V13.4345H17.248Z" fill="white"/>
<path d="M1.42383 11.3396C2.93539 11.3396 4.43333 11.3386 5.93175 11.3438C5.98199 11.3438 6.06229 11.3978 6.07826 11.4434C6.30506 12.1059 6.52341 12.7718 6.74552 13.4423H1.42383V11.3391V11.3396Z" fill="white"/>
<path d="M1.42383 17.6715H3.50827V19.7611H1.42383V17.6715Z" fill="white"/>
<path d="M22.5901 17.678V19.7605H20.5V17.678H22.5901Z" fill="white"/>
</g>
<rect x="14" y="13" width="16" height="16" rx="8" fill="#D72E36"/>
<path d="M19.5165 24.5V23.6406L22.2128 20.9229C23.0614 20.0312 23.4911 19.5371 23.4911 18.8604C23.4911 18.0977 22.8681 17.6035 22.0517 17.6035C21.1923 17.6035 20.6337 18.1514 20.6337 18.9785H19.5165C19.5058 17.5605 20.5907 16.6152 22.0731 16.6152C23.5771 16.6152 24.6083 17.5605 24.619 18.8281C24.6083 19.6982 24.2001 20.3857 22.7392 21.8252L21.1601 23.4258V23.4902H24.7479V24.5H19.5165Z" fill="white"/>
</svg>
