<svg width="36" height="30" viewBox="0 0 36 30" fill="none" xmlns="http://www.w3.org/2000/svg">
<path d="M13.855 24.0001H13.6834C13.6731 23.9852 13.6634 23.9582 13.6519 23.9576C13.0134 23.9026 12.4511 23.6553 11.96 23.2554C11.2544 22.6806 10.8517 21.9325 10.7702 21.0249C10.7134 20.3938 10.7966 19.7806 11.1465 19.1621C10.936 19.1983 10.7725 19.1879 10.6492 19.2539C9.77197 19.7238 8.89996 20.2045 8.03195 20.6922C7.35499 21.0719 6.69123 21.4471 5.86051 21.3789C5.19904 21.3244 4.646 21.0513 4.20884 20.6021C3.68449 20.0628 3.43894 19.3836 3.49 18.6085C3.54336 17.7921 3.87897 17.1209 4.55306 16.674C5.18757 16.2529 5.87084 15.9041 6.5369 15.5312C7.62922 14.9196 8.7244 14.3127 9.82074 13.708C10.1449 13.5296 10.469 13.4056 10.8677 13.4131C12.3559 13.4424 13.8446 13.4246 15.3334 13.4246H15.63C15.63 13.3053 15.63 13.2117 15.63 13.1182C15.63 11.2675 15.6369 9.41674 15.6265 7.56657C15.6225 6.79437 15.934 6.16503 16.4148 5.60682C16.296 5.44332 16.1652 5.28555 16.0585 5.1123C15.6151 4.39231 15.5061 3.62929 15.7401 2.80719C15.9587 2.04073 16.4137 1.47908 17.1009 1.09298C17.7056 0.753356 18.3436 0.703444 19.0228 0.813594C20.3756 1.03217 21.3606 2.29488 21.3503 3.62929C21.3446 4.3097 21.0979 4.91667 20.6602 5.44619C20.6097 5.50758 20.5856 5.66821 20.6269 5.7164C21.1466 6.31993 21.3589 7.02041 21.3578 7.80695C21.3532 10.9072 21.356 14.0075 21.356 17.1077V17.4032H22.0301C22.0932 16.8386 22.1598 16.2908 22.2149 15.7417C22.2958 14.9397 22.3692 14.1365 22.4443 13.3334C22.5218 12.5118 22.5975 11.6909 22.6744 10.8693C22.7501 10.0667 22.8568 9.26528 22.8947 8.46096C22.9343 7.61648 23.1827 6.86551 23.7197 6.19257C23.2343 5.68141 23.0955 5.0687 23.1236 4.38141C23.1552 3.60061 23.1316 2.81751 23.1328 2.03499C23.1328 1.95927 23.1248 1.87895 23.1466 1.80838C23.4839 0.726392 24.1499 0.216376 25.283 0.20605C26.6667 0.194002 28.0505 0.202608 29.4343 0.203755C29.506 0.203755 29.5783 0.215229 29.658 0.222113V0.473392C29.658 8.21944 29.658 15.9655 29.658 23.7115C29.658 23.7878 29.6528 23.8636 29.65 23.9399C29.5639 23.941 29.4784 23.9439 29.3924 23.9439C24.31 23.9439 19.2271 23.9439 14.1447 23.9462C14.0483 23.9462 13.9519 23.9817 13.8555 24.0012L13.855 24.0001ZM17.3476 15.1726H17.0051C15.0494 15.1726 13.0931 15.1657 11.1374 15.1812C10.889 15.183 10.6187 15.257 10.3984 15.3734C9.47652 15.8616 8.56951 16.3791 7.65733 16.8857C6.99643 17.2523 6.32865 17.6068 5.67808 17.9906C5.23978 18.2494 5.08947 18.7072 5.26903 19.0921C5.53179 19.6566 6.00279 19.8196 6.5805 19.5075C7.66479 18.9206 8.73588 18.3096 9.81844 17.7198C10.0387 17.5999 10.2843 17.4456 10.5189 17.4445C13.4574 17.4255 16.3964 17.4324 19.3349 17.4324H19.6384C19.6384 17.3091 19.6384 17.207 19.6384 17.1043C19.6384 14.1285 19.6395 11.1527 19.6361 8.17698C19.6361 7.92398 19.612 7.66984 19.5805 7.41856C19.4984 6.75708 18.7928 6.31706 18.1445 6.51499C17.6855 6.65497 17.3528 7.09384 17.3511 7.58321C17.3465 8.95663 17.3482 10.3301 17.3476 11.7035C17.3476 12.8474 17.3476 13.9914 17.3476 15.1732V15.1726ZM27.9312 19.1793H27.5961C23.1592 19.1793 18.7216 19.1793 14.2847 19.1793C14.1797 19.1793 14.0747 19.1851 13.9697 19.1839C12.9026 19.1673 12.1201 20.3755 12.645 21.3904C12.9726 22.0243 13.505 22.2446 14.1934 22.2429C18.6975 22.2348 23.2016 22.2388 27.7057 22.2388H27.9317V19.1788L27.9312 19.1793ZM27.9277 17.4187V6.76225C27.3644 6.76225 26.813 6.75192 26.2629 6.76512C25.6754 6.77889 25.2228 7.025 24.894 7.53502C24.5911 8.00545 24.6296 8.53095 24.567 9.04039C24.5062 9.53435 24.4919 10.034 24.4431 10.5297C24.3754 11.2193 24.2859 11.906 24.2211 12.5956C24.154 13.3064 24.1121 14.0201 24.045 14.7309C23.9606 15.623 23.8619 16.5134 23.7679 17.4187H27.9283H27.9277ZM27.9323 1.95238C26.9943 1.95238 26.0804 1.95238 25.1665 1.95238C24.9451 1.95238 24.8435 2.04819 24.8458 2.28053C24.8533 3.06134 24.8481 3.84271 24.8487 4.62408C24.8487 4.96601 24.886 5.00846 25.2228 5.01018C25.9186 5.0142 26.614 5.01133 27.3099 5.01133C27.5152 5.01133 27.7212 5.01133 27.9329 5.01133V1.95238H27.9323ZM18.4652 2.47961C17.868 2.3861 17.3189 3.08543 17.3442 3.61495C17.374 4.24602 17.8525 4.71874 18.5323 4.71071C19.1611 4.70325 19.6063 4.23454 19.6195 3.60463C19.6321 3.02691 19.1961 2.45781 18.4652 2.47903V2.47961Z" fill="white"/>
<path d="M0.341797 5.79897C0.43703 5.41 0.521937 5.01817 0.629792 4.63322C0.860418 3.81054 1.2775 3.08653 1.80357 2.41645C2.33195 1.74293 2.98424 1.21284 3.72201 0.800352C4.39152 0.426302 5.11954 0.183055 5.88542 0.0757742C7.30245 -0.123298 8.67014 0.0614317 9.93342 0.730361C11.5994 1.61213 12.7491 2.95229 13.2282 4.80073C13.3739 5.36468 13.5001 5.95501 13.4955 6.53158C13.4823 8.04556 13.0503 9.43677 12.0819 10.6381C11.4595 11.4103 10.72 12.0345 9.83016 12.4682C9.08607 12.8308 8.30126 13.0488 7.4694 13.1325C5.8728 13.2937 4.44143 12.86 3.14201 11.9731C2.01756 11.2055 1.21152 10.1619 0.757153 8.87455C0.589634 8.39953 0.513906 7.89238 0.394003 7.40073C0.38884 7.37892 0.360155 7.36286 0.342371 7.34393C0.342371 6.82875 0.342371 6.31357 0.342371 5.79839L0.341797 5.79897ZM6.87333 11.408C9.3144 11.5445 12.059 9.3031 11.7423 6.0468C11.5358 3.92757 9.65805 1.59607 6.59279 1.73376C4.29055 1.83759 1.93151 3.8352 2.05887 6.85629C2.1564 9.17173 4.22916 11.4935 6.87333 11.408Z" fill="white"/>
<g opacity="0.2">
<path d="M17.3478 15.1725C17.3478 13.9907 17.3478 12.8468 17.3478 11.7028C17.3478 10.3294 17.3467 8.95594 17.3513 7.58252C17.353 7.09258 17.6852 6.65428 18.1447 6.51429C18.7924 6.31637 19.498 6.75639 19.5807 7.41787C19.6122 7.66914 19.6357 7.92329 19.6363 8.17629C19.6403 11.1521 19.6386 14.1278 19.6386 17.1036C19.6386 17.2063 19.6386 17.3084 19.6386 17.4317H19.3351C16.3966 17.4317 13.4576 17.4254 10.5191 17.4438C10.2845 17.4455 10.0389 17.5992 9.81865 17.7192C8.73609 18.3095 7.665 18.9205 6.58071 19.5068C6.003 19.8195 5.53199 19.6565 5.26924 19.0914C5.09025 18.7065 5.23998 18.2487 5.67829 17.9899C6.32886 17.6061 6.99721 17.2516 7.65754 16.885C8.56971 16.3784 9.47673 15.8615 10.3987 15.3727C10.619 15.2563 10.8892 15.1823 11.1376 15.1805C13.0933 15.1651 15.0496 15.1719 17.0053 15.1719H17.3478V15.1725Z" fill="white"/>
<path d="M27.9317 19.1792V22.2393H27.7057C23.2016 22.2393 18.6975 22.2353 14.1934 22.2433C13.5056 22.2445 12.9726 22.0242 12.645 21.3908C12.1201 20.3754 12.9026 19.1677 13.9697 19.1844C14.0747 19.1861 14.1797 19.1798 14.2847 19.1798C18.7216 19.1798 23.1592 19.1798 27.5961 19.1798H27.9312L27.9317 19.1792Z" fill="white"/>
<path d="M27.928 17.4178H23.7676C23.8617 16.5125 23.9603 15.6221 24.0447 14.73C24.1118 14.0192 24.1537 13.3056 24.2208 12.5947C24.2862 11.9052 24.3751 11.2179 24.4428 10.5289C24.4916 10.0332 24.5059 9.53351 24.5667 9.03955C24.6293 8.53011 24.5908 8.00461 24.8937 7.53418C25.2225 7.02416 25.6751 6.77804 26.2626 6.76428C26.8133 6.75165 27.3641 6.76141 27.9274 6.76141V17.4178H27.928Z" fill="white"/>
<path d="M27.9328 1.95215V5.0111C27.7211 5.0111 27.5151 5.0111 27.3098 5.0111C26.6139 5.0111 25.9186 5.01397 25.2227 5.00995C24.8859 5.00823 24.8492 4.96578 24.8486 4.62385C24.848 3.84248 24.8532 3.06168 24.8457 2.28031C24.8434 2.04796 24.945 1.95158 25.1664 1.95215C26.0803 1.95272 26.9942 1.95215 27.9322 1.95215H27.9328Z" fill="white"/>
<path d="M18.4656 2.47895C19.1965 2.45715 19.6319 3.02683 19.6199 3.60455C19.6061 4.23446 19.1615 4.70317 18.5327 4.71063C17.8529 4.71866 17.3744 4.24594 17.3446 3.61487C17.3193 3.08478 17.8684 2.38544 18.4656 2.47953V2.47895Z" fill="white"/>
<path d="M6.87408 11.4078C4.22992 11.4933 2.15715 9.17157 2.05963 6.85613C1.93226 3.83562 4.29073 1.83744 6.59354 1.7336C9.6588 1.59592 11.5371 3.92684 11.743 6.04665C12.0597 9.30295 9.31516 11.5444 6.87408 11.4078Z" fill="white"/>
</g>
<rect x="19.3418" y="14" width="14" height="16" rx="7" fill="#D72E36"/>
<path d="M27.6181 17.7227V25.5H26.4257V18.9043H26.3827L24.5243 20.1182V18.9902L26.4579 17.7227H27.6181Z" fill="white"/>
</svg>
