<svg width="90" height="83" viewBox="0 0 90 83" fill="none" xmlns="http://www.w3.org/2000/svg">
<path d="M43.855 36.0001H43.6834C43.6731 35.9852 43.6634 35.9582 43.6519 35.9576C43.0134 35.9026 42.4511 35.6553 41.96 35.2554C41.2544 34.6806 40.8517 33.9325 40.7702 33.0249C40.7134 32.3938 40.7966 31.7806 41.1465 31.1621C40.936 31.1983 40.7725 31.1879 40.6492 31.2539C39.772 31.7238 38.9 32.2045 38.032 32.6922C37.355 33.0719 36.6912 33.4471 35.8605 33.3789C35.199 33.3244 34.646 33.0513 34.2088 32.6021C33.6845 32.0628 33.4389 31.3836 33.49 30.6085C33.5434 29.7921 33.879 29.1209 34.5531 28.674C35.1876 28.2529 35.8708 27.9041 36.5369 27.5312C37.6292 26.9196 38.7244 26.3127 39.8207 25.708C40.1449 25.5296 40.469 25.4056 40.8677 25.4131C42.3559 25.4424 43.8446 25.4246 45.3334 25.4246H45.63C45.63 25.3053 45.63 25.2117 45.63 25.1182C45.63 23.2675 45.6369 21.4167 45.6265 19.5666C45.6225 18.7944 45.934 18.165 46.4148 17.6068C46.296 17.4433 46.1652 17.2856 46.0585 17.1123C45.6151 16.3923 45.5061 15.6293 45.7401 14.8072C45.9587 14.0407 46.4137 13.4791 47.1009 13.093C47.7056 12.7534 48.3436 12.7034 49.0228 12.8136C50.3756 13.0322 51.3606 14.2949 51.3503 15.6293C51.3446 16.3097 51.0979 16.9167 50.6602 17.4462C50.6097 17.5076 50.5856 17.6682 50.6269 17.7164C51.1466 18.3199 51.3589 19.0204 51.3578 19.8069C51.3532 22.9072 51.356 26.0075 51.356 29.1077V29.4032H52.0301C52.0932 28.8386 52.1598 28.2908 52.2149 27.7417C52.2958 26.9397 52.3692 26.1365 52.4443 25.3334C52.5218 24.5118 52.5975 23.6909 52.6744 22.8693C52.7501 22.0667 52.8568 21.2653 52.8947 20.461C52.9343 19.6165 53.1827 18.8655 53.7197 18.1926C53.2343 17.6814 53.0955 17.0687 53.1236 16.3814C53.1552 15.6006 53.1316 14.8175 53.1328 14.035C53.1328 13.9593 53.1248 13.8789 53.1466 13.8084C53.4839 12.7264 54.1499 12.2164 55.283 12.206C56.6667 12.194 58.0505 12.2026 59.4343 12.2038C59.506 12.2038 59.5783 12.2152 59.658 12.2221V12.4734C59.658 20.2194 59.658 27.9655 59.658 35.7115C59.658 35.7878 59.6528 35.8636 59.65 35.9399C59.5639 35.941 59.4784 35.9439 59.3924 35.9439C54.31 35.9439 49.2271 35.9439 44.1447 35.9462C44.0483 35.9462 43.9519 35.9817 43.8555 36.0012L43.855 36.0001ZM47.3476 27.1726H47.0051C45.0494 27.1726 43.0931 27.1657 41.1374 27.1812C40.889 27.183 40.6187 27.257 40.3984 27.3734C39.4765 27.8616 38.5695 28.3791 37.6573 28.8857C36.9964 29.2523 36.3287 29.6068 35.6781 29.9906C35.2398 30.2494 35.0895 30.7072 35.269 31.0921C35.5318 31.6566 36.0028 31.8196 36.5805 31.5075C37.6648 30.9206 38.7359 30.3096 39.8184 29.7198C40.0387 29.5999 40.2843 29.4456 40.5189 29.4445C43.4574 29.4255 46.3964 29.4324 49.3349 29.4324H49.6384C49.6384 29.3091 49.6384 29.207 49.6384 29.1043C49.6384 26.1285 49.6395 23.1527 49.6361 20.177C49.6361 19.924 49.612 19.6698 49.5805 19.4186C49.4984 18.7571 48.7928 18.3171 48.1445 18.515C47.6855 18.655 47.3528 19.0938 47.3511 19.5832C47.3465 20.9566 47.3482 22.3301 47.3476 23.7035C47.3476 24.8474 47.3476 25.9914 47.3476 27.1732V27.1726ZM57.9312 31.1793H57.5961C53.1592 31.1793 48.7216 31.1793 44.2847 31.1793C44.1797 31.1793 44.0747 31.1851 43.9697 31.1839C42.9026 31.1673 42.1201 32.3755 42.645 33.3904C42.9726 34.0243 43.505 34.2446 44.1934 34.2429C48.6975 34.2348 53.2016 34.2388 57.7057 34.2388H57.9317V31.1788L57.9312 31.1793ZM57.9277 29.4187V18.7622C57.3644 18.7622 56.813 18.7519 56.2629 18.7651C55.6754 18.7789 55.2228 19.025 54.894 19.535C54.5911 20.0054 54.6296 20.531 54.567 21.0404C54.5062 21.5343 54.4919 22.034 54.4431 22.5297C54.3754 23.2193 54.2859 23.906 54.2211 24.5956C54.154 25.3064 54.1121 26.0201 54.045 26.7309C53.9606 27.623 53.8619 28.5134 53.7679 29.4187H57.9283H57.9277ZM57.9323 13.9524C56.9943 13.9524 56.0804 13.9524 55.1665 13.9524C54.9451 13.9524 54.8435 14.0482 54.8458 14.2805C54.8533 15.0613 54.8481 15.8427 54.8487 16.6241C54.8487 16.966 54.886 17.0085 55.2228 17.0102C55.9186 17.0142 56.614 17.0113 57.3099 17.0113C57.5152 17.0113 57.7212 17.0113 57.9329 17.0113V13.9524H57.9323ZM48.4652 14.4796C47.868 14.3861 47.3189 15.0854 47.3442 15.615C47.374 16.246 47.8525 16.7187 48.5323 16.7107C49.1611 16.7033 49.6063 16.2345 49.6195 15.6046C49.6321 15.0269 49.1961 14.4578 48.4652 14.479V14.4796Z" fill="#888888"/>
<path d="M30.3418 17.799C30.437 17.41 30.5219 17.0182 30.6298 16.6332C30.8604 15.8105 31.2775 15.0865 31.8036 14.4165C32.3319 13.7429 32.9842 13.2128 33.722 12.8004C34.3915 12.4263 35.1195 12.1831 35.8854 12.0758C37.3025 11.8767 38.6701 12.0614 39.9334 12.7304C41.5994 13.6121 42.7491 14.9523 43.2282 16.8007C43.3739 17.3647 43.5001 17.955 43.4955 18.5316C43.4823 20.0456 43.0503 21.4368 42.0819 22.6381C41.4595 23.4103 40.72 24.0345 39.8302 24.4682C39.0861 24.8308 38.3013 25.0488 37.4694 25.1325C35.8728 25.2937 34.4414 24.86 33.142 23.9731C32.0176 23.2055 31.2115 22.1619 30.7572 20.8746C30.5896 20.3995 30.5139 19.8924 30.394 19.4007C30.3888 19.3789 30.3602 19.3629 30.3424 19.3439C30.3424 18.8288 30.3424 18.3136 30.3424 17.7984L30.3418 17.799ZM36.8733 23.408C39.3144 23.5445 42.059 21.3031 41.7423 18.0468C41.5358 15.9276 39.658 13.5961 36.5928 13.7338C34.2905 13.8376 31.9315 15.8352 32.0589 18.8563C32.1564 21.1717 34.2292 23.4935 36.8733 23.408Z" fill="#888888"/>
<g opacity="0.2">
<path d="M47.3469 27.1725C47.3469 25.9907 47.3469 24.8468 47.3469 23.7028C47.3469 22.3294 47.3457 20.9559 47.3503 19.5825C47.352 19.0926 47.6842 18.6543 48.1437 18.5143C48.7914 18.3164 49.4971 18.7564 49.5797 19.4179C49.6112 19.6691 49.6348 19.9233 49.6353 20.1763C49.6393 23.1521 49.6376 26.1278 49.6376 29.1036C49.6376 29.2063 49.6376 29.3084 49.6376 29.4317H49.3341C46.3957 29.4317 43.4566 29.4254 40.5182 29.4438C40.2835 29.4455 40.038 29.5992 39.8177 29.7192C38.7351 30.3095 37.664 30.9205 36.5797 31.5068C36.002 31.8195 35.531 31.6565 35.2683 31.0914C35.0893 30.7065 35.239 30.2487 35.6773 29.9899C36.3279 29.6061 36.9962 29.2516 37.6566 28.885C38.5687 28.3784 39.4758 27.8615 40.3977 27.3727C40.618 27.2563 40.8882 27.1823 41.1366 27.1805C43.0923 27.1651 45.0486 27.1719 47.0044 27.1719H47.3469V27.1725Z" fill="#888888"/>
<path d="M57.9308 31.1792V34.2393H57.7047C53.2006 34.2393 48.6966 34.2353 44.1925 34.2433C43.5046 34.2445 42.9716 34.0242 42.6441 33.3908C42.1191 32.3754 42.9017 31.1677 43.9687 31.1844C44.0737 31.1861 44.1787 31.1798 44.2837 31.1798C48.7207 31.1798 53.1582 31.1798 57.5952 31.1798H57.9302L57.9308 31.1792Z" fill="#888888"/>
<path d="M57.927 29.4178H53.7666C53.8607 28.5125 53.9594 27.6221 54.0437 26.73C54.1108 26.0192 54.1527 25.3056 54.2198 24.5947C54.2852 23.9052 54.3741 23.2179 54.4418 22.5289C54.4906 22.0332 54.5049 21.5335 54.5658 21.0396C54.6283 20.5301 54.5899 20.0046 54.8928 19.5342C55.2215 19.0242 55.6741 18.778 56.2616 18.7643C56.8124 18.7517 57.3631 18.7614 57.9265 18.7614V29.4178H57.927Z" fill="#888888"/>
<path d="M57.9318 13.9522V17.0111C57.7201 17.0111 57.5142 17.0111 57.3088 17.0111C56.6129 17.0111 55.9176 17.014 55.2217 17.01C54.8849 17.0082 54.8482 16.9658 54.8476 16.6239C54.8471 15.8425 54.8522 15.0617 54.8448 14.2803C54.8425 14.048 54.944 13.9516 55.1655 13.9522C56.0794 13.9527 56.9933 13.9522 57.9313 13.9522H57.9318Z" fill="#888888"/>
<path d="M48.4646 14.479C49.1955 14.4572 49.6309 15.0268 49.6189 15.6045C49.6051 16.2345 49.1605 16.7032 48.5317 16.7106C47.8519 16.7187 47.3734 16.2459 47.3436 15.6149C47.3184 15.0848 47.8674 14.3854 48.4646 14.4795V14.479Z" fill="#888888"/>
<path d="M36.8731 23.4078C34.2289 23.4933 32.1562 21.1716 32.0586 18.8561C31.9313 15.8356 34.2898 13.8374 36.5926 13.7336C39.6578 13.5959 41.5361 15.9268 41.7421 18.0466C42.0587 21.3029 39.3142 23.5444 36.8731 23.4078Z" fill="#888888"/>
</g>
<rect x="49.3418" y="26" width="14" height="16" rx="7" fill="#333333"/>
<path d="M57.6181 29.7227V37.5H56.4257V30.9043H56.3827L54.5243 32.1182V30.9902L56.4579 29.7227H57.6181Z" fill="#A0A0A0"/>
<path d="M26.2236 59.3945V70H24.3193V59.3945H26.2236ZM29.6883 65.3418V70H27.8133V62.0459H29.6004V63.3936H29.7029C30.0691 62.5 30.8748 61.9434 32.0613 61.9434C33.7166 61.9434 34.8006 63.0273 34.7859 64.9316V70H32.9256V65.2246C32.9256 64.1553 32.3543 63.5254 31.3729 63.5254C30.3768 63.5254 29.6883 64.1846 29.6883 65.3418ZM39.232 70.1465C37.357 70.1465 35.9508 68.6523 35.9508 66.0303C35.9508 63.3789 37.401 61.9434 39.2467 61.9434C40.6529 61.9434 41.2389 62.7783 41.5172 63.3496H41.5904V59.3945H43.4508V70H41.6197V68.7402H41.5172C41.2242 69.3262 40.609 70.1465 39.232 70.1465ZM39.7447 68.6084C40.9459 68.6084 41.6344 67.5684 41.6344 66.0156C41.6344 64.4775 40.9605 63.4668 39.7447 63.4668C38.4996 63.4668 37.8551 64.5361 37.8551 66.0156C37.8551 67.5244 38.5143 68.6084 39.7447 68.6084ZM48.5121 70.1611C46.1977 70.1611 44.7035 68.5205 44.7035 66.0596C44.7035 63.584 46.1977 61.9434 48.5121 61.9434C50.8412 61.9434 52.3207 63.584 52.3207 66.0596C52.3207 68.5205 50.8412 70.1611 48.5121 70.1611ZM48.5268 68.667C49.8012 68.667 50.4311 67.5098 50.4311 66.0449C50.4311 64.5947 49.8012 63.4229 48.5268 63.4229C47.223 63.4229 46.5932 64.5947 46.5932 66.0449C46.5932 67.5098 47.223 68.667 48.5268 68.667ZM56.9426 70.1611C54.6281 70.1611 53.134 68.5205 53.134 66.0596C53.134 63.584 54.6281 61.9434 56.9426 61.9434C59.2717 61.9434 60.7512 63.584 60.7512 66.0596C60.7512 68.5205 59.2717 70.1611 56.9426 70.1611ZM56.9572 68.667C58.2316 68.667 58.8615 67.5098 58.8615 66.0449C58.8615 64.5947 58.2316 63.4229 56.9572 63.4229C55.6535 63.4229 55.0236 64.5947 55.0236 66.0449C55.0236 67.5098 55.6535 68.667 56.9572 68.667ZM61.9014 70V62.0459H63.7178V63.3643H63.8057C64.084 62.4561 64.8604 61.9287 65.7686 61.9287C65.9736 61.9287 66.2666 61.9434 66.4424 61.9727V63.7012C66.2812 63.6426 65.8857 63.584 65.5781 63.584C64.5381 63.584 63.7764 64.3018 63.7764 65.3125V70H61.9014Z" fill="#A0A0A0"/>
</svg>
