<svg width="35" height="30" viewBox="0 0 35 30" fill="none" xmlns="http://www.w3.org/2000/svg">
<path d="M13.5122 24.0001H13.3407C13.3303 23.9852 13.3206 23.9582 13.3091 23.9576C12.6706 23.9026 12.1084 23.6553 11.6173 23.2554C10.9116 22.6806 10.5089 21.9325 10.4274 21.0249C10.3706 20.3938 10.4538 19.7806 10.8038 19.1621C10.5932 19.1983 10.4297 19.1879 10.3064 19.2539C9.4292 19.7238 8.55718 20.2045 7.68918 20.6922C7.01222 21.0719 6.34845 21.4471 5.51774 21.3789C4.85627 21.3244 4.30323 21.0513 3.86607 20.6021C3.34171 20.0628 3.09617 19.3836 3.14723 18.6085C3.20058 17.7921 3.53619 17.1209 4.21029 16.674C4.8448 16.2529 5.52807 15.9041 6.19413 15.5312C7.28645 14.9196 8.38163 14.3127 9.47796 13.708C9.8021 13.5296 10.1262 13.4056 10.525 13.4131C12.0131 13.4424 13.5019 13.4246 14.9906 13.4246H15.2872C15.2872 13.3053 15.2872 13.2117 15.2872 13.1182C15.2872 11.2675 15.2941 9.41674 15.2838 7.56657C15.2798 6.79437 15.5913 6.16503 16.072 5.60682C15.9533 5.44332 15.8225 5.28555 15.7158 5.1123C15.2723 4.39231 15.1633 3.62929 15.3974 2.80719C15.6159 2.04073 16.0709 1.47908 16.7582 1.09298C17.3628 0.753356 18.0008 0.703444 18.68 0.813594C20.0328 1.03217 21.0179 2.29488 21.0075 3.62929C21.0018 4.3097 20.7551 4.91667 20.3174 5.44619C20.2669 5.50758 20.2428 5.66821 20.2841 5.7164C20.8039 6.31993 21.0161 7.02041 21.015 7.80695C21.0104 10.9072 21.0133 14.0075 21.0133 17.1077V17.4032H21.6874C21.7505 16.8386 21.817 16.2908 21.8721 15.7417C21.953 14.9397 22.0264 14.1365 22.1016 13.3334C22.179 12.5118 22.2547 11.6909 22.3316 10.8693C22.4074 10.0667 22.5141 9.26528 22.5519 8.46096C22.5915 7.61648 22.8399 6.86551 23.3769 6.19257C22.8916 5.68141 22.7527 5.0687 22.7808 4.38141C22.8124 3.60061 22.7889 2.81751 22.79 2.03499C22.79 1.95927 22.782 1.87895 22.8038 1.80838C23.1411 0.726392 23.8072 0.216376 24.9402 0.20605C26.324 0.194002 27.7077 0.202608 29.0915 0.203755C29.1632 0.203755 29.2355 0.215229 29.3152 0.222113V0.473392C29.3152 8.21944 29.3152 15.9655 29.3152 23.7115C29.3152 23.7878 29.3101 23.8636 29.3072 23.9399C29.2211 23.941 29.1357 23.9439 29.0496 23.9439C23.9672 23.9439 18.8843 23.9439 13.8019 23.9462C13.7055 23.9462 13.6091 23.9817 13.5128 24.0012L13.5122 24.0001ZM17.0049 15.1726H16.6624C14.7066 15.1726 12.7503 15.1657 10.7946 15.1812C10.5462 15.183 10.276 15.257 10.0557 15.3734C9.13375 15.8616 8.22673 16.3791 7.31456 16.8857C6.65366 17.2523 5.98588 17.6068 5.33531 17.9906C4.897 18.2494 4.74669 18.7072 4.92626 19.0921C5.18901 19.6566 5.66002 19.8196 6.23773 19.5075C7.32201 18.9206 8.39311 18.3096 9.47567 17.7198C9.69597 17.5999 9.94151 17.4456 10.1762 17.4445C13.1146 17.4255 16.0537 17.4324 18.9921 17.4324H19.2956C19.2956 17.3091 19.2956 17.207 19.2956 17.1043C19.2956 14.1285 19.2968 11.1527 19.2933 8.17698C19.2933 7.92398 19.2692 7.66984 19.2377 7.41856C19.1556 6.75708 18.45 6.31706 17.8017 6.51499C17.3428 6.65497 17.01 7.09384 17.0083 7.58321C17.0037 8.95663 17.0054 10.3301 17.0049 11.7035C17.0049 12.8474 17.0049 13.9914 17.0049 15.1732V15.1726ZM27.5884 19.1793H27.2534C22.8164 19.1793 18.3789 19.1793 13.9419 19.1793C13.8369 19.1793 13.7319 19.1851 13.6269 19.1839C12.5599 19.1673 11.7773 20.3755 12.3023 21.3904C12.6299 22.0243 13.1622 22.2446 13.8507 22.2429C18.3548 22.2348 22.8589 22.2388 27.3629 22.2388H27.589V19.1788L27.5884 19.1793ZM27.585 17.4187V6.76225C27.0216 6.76225 26.4703 6.75192 25.9201 6.76512C25.3326 6.77889 24.88 7.025 24.5513 7.53502C24.2483 8.00545 24.2868 8.53095 24.2242 9.04039C24.1634 9.53435 24.1491 10.034 24.1003 10.5297C24.0326 11.2193 23.9431 11.906 23.8783 12.5956C23.8112 13.3064 23.7693 14.0201 23.7022 14.7309C23.6179 15.623 23.5192 16.5134 23.4251 17.4187H27.5855H27.585ZM27.5896 1.95238C26.6516 1.95238 25.7377 1.95238 24.8238 1.95238C24.6023 1.95238 24.5008 2.04819 24.5031 2.28053C24.5105 3.06134 24.5054 3.84271 24.5059 4.62408C24.5059 4.96601 24.5432 5.00846 24.88 5.01018C25.5759 5.0142 26.2712 5.01133 26.9671 5.01133C27.1725 5.01133 27.3784 5.01133 27.5901 5.01133V1.95238H27.5896ZM18.1224 2.47961C17.5252 2.3861 16.9762 3.08543 17.0014 3.61495C17.0312 4.24602 17.5097 4.71874 18.1895 4.71071C18.8183 4.70325 19.2635 4.23454 19.2767 3.60463C19.2893 3.02691 18.8533 2.45781 18.1224 2.47903V2.47961Z" fill="white"/>
<path d="M0 5.79897C0.0952335 5.41 0.180141 5.01817 0.287995 4.63322C0.518621 3.81054 0.935698 3.08653 1.46178 2.41645C1.99015 1.74293 2.64244 1.21284 3.38022 0.800352C4.04972 0.426302 4.77774 0.183055 5.54362 0.0757742C6.96065 -0.123298 8.32835 0.0614317 9.59162 0.730361C11.2576 1.61213 12.4073 2.95229 12.8864 4.80073C13.0321 5.36468 13.1583 5.95501 13.1537 6.53158C13.1405 8.04556 12.7085 9.43677 11.7401 10.6381C11.1177 11.4103 10.3782 12.0345 9.48836 12.4682C8.74428 12.8308 7.95946 13.0488 7.1276 13.1325C5.531 13.2937 4.09963 12.86 2.80021 11.9731C1.67577 11.2055 0.869723 10.1619 0.415356 8.87455C0.247837 8.39953 0.172109 7.89238 0.0522063 7.40073C0.0470431 7.37892 0.0183583 7.36286 0.000573696 7.34393C0.000573696 6.82875 0.000573696 6.31357 0.000573696 5.79839L0 5.79897ZM6.53153 11.408C8.97261 11.5445 11.7172 9.3031 11.4005 6.0468C11.194 3.92757 9.31625 1.59607 6.25099 1.73376C3.94875 1.83759 1.58971 3.8352 1.71707 6.85629C1.8146 9.17173 3.88736 11.4935 6.53153 11.408Z" fill="white"/>
<g opacity="0.2">
<path d="M17.006 15.1725C17.006 13.9907 17.006 12.8468 17.006 11.7028C17.006 10.3294 17.0049 8.95594 17.0095 7.58252C17.0112 7.09258 17.3434 6.65428 17.8029 6.51429C18.4506 6.31637 19.1563 6.75639 19.2389 7.41787C19.2704 7.66914 19.2939 7.92329 19.2945 8.17629C19.2985 11.1521 19.2968 14.1278 19.2968 17.1036C19.2968 17.2063 19.2968 17.3084 19.2968 17.4317H18.9933C16.0549 17.4317 13.1158 17.4254 10.1773 17.4438C9.94269 17.4455 9.69715 17.5992 9.47685 17.7192C8.39429 18.3095 7.3232 18.9205 6.23891 19.5068C5.6612 19.8195 5.1902 19.6565 4.92744 19.0914C4.74845 18.7065 4.89819 18.2487 5.33649 17.9899C5.98706 17.6061 6.65542 17.2516 7.31574 16.885C8.22792 16.3784 9.13493 15.8615 10.0569 15.3727C10.2772 15.2563 10.5474 15.1823 10.7958 15.1805C12.7515 15.1651 14.7078 15.1719 16.6635 15.1719H17.006V15.1725Z" fill="white"/>
<path d="M27.589 19.1792V22.2393H27.3629C22.8589 22.2393 18.3548 22.2353 13.8507 22.2433C13.1628 22.2445 12.6299 22.0242 12.3023 21.3908C11.7773 20.3754 12.5599 19.1677 13.6269 19.1844C13.7319 19.1861 13.8369 19.1798 13.9419 19.1798C18.3789 19.1798 22.8164 19.1798 27.2534 19.1798H27.5884L27.589 19.1792Z" fill="white"/>
<path d="M27.5862 17.4178H23.4258C23.5199 16.5125 23.6185 15.6221 23.7029 14.73C23.77 14.0192 23.8119 13.3056 23.879 12.5947C23.9444 11.9052 24.0333 11.2179 24.101 10.5289C24.1498 10.0332 24.1641 9.53351 24.2249 9.03955C24.2875 8.53011 24.249 8.00461 24.5519 7.53418C24.8807 7.02416 25.3333 6.77804 25.9208 6.76428C26.4715 6.75165 27.0223 6.76141 27.5857 6.76141V17.4178H27.5862Z" fill="white"/>
<path d="M27.591 1.95215V5.0111C27.3793 5.0111 27.1734 5.0111 26.968 5.0111C26.2721 5.0111 25.5768 5.01397 24.8809 5.00995C24.5441 5.00823 24.5074 4.96578 24.5068 4.62385C24.5062 3.84248 24.5114 3.06168 24.5039 2.28031C24.5016 2.04796 24.6032 1.95158 24.8246 1.95215C25.7385 1.95272 26.6524 1.95215 27.5904 1.95215H27.591Z" fill="white"/>
<path d="M18.1238 2.47895C18.8547 2.45715 19.2901 3.02683 19.2781 3.60455C19.2643 4.23446 18.8197 4.70317 18.1909 4.71063C17.5111 4.71866 17.0326 4.24594 17.0028 3.61487C16.9775 3.08478 17.5266 2.38544 18.1238 2.47953V2.47895Z" fill="white"/>
<path d="M6.53229 11.4078C3.88812 11.4933 1.81536 9.17157 1.71783 6.85613C1.59047 3.83562 3.94893 1.83744 6.25175 1.7336C9.31701 1.59592 11.1953 3.92684 11.4012 6.04665C11.7179 9.30295 8.97336 11.5444 6.53229 11.4078Z" fill="white"/>
</g>
<rect x="19" y="14" width="16" height="16" rx="8" fill="#D72E36"/>
<path d="M24.5165 25.5V24.6406L27.2128 21.9229C28.0614 21.0312 28.4911 20.5371 28.4911 19.8604C28.4911 19.0977 27.8681 18.6035 27.0517 18.6035C26.1923 18.6035 25.6337 19.1514 25.6337 19.9785H24.5165C24.5058 18.5605 25.5907 17.6152 27.0731 17.6152C28.5771 17.6152 29.6083 18.5605 29.619 19.8281C29.6083 20.6982 29.2001 21.3857 27.7392 22.8252L26.1601 24.4258V24.4902H29.7479V25.5H24.5165Z" fill="white"/>
</svg>
