<svg width="24" height="24" viewBox="0 0 24 24" fill="none" xmlns="http://www.w3.org/2000/svg">
<path d="M15.4751 6.92077C13.7468 6.92077 12.0186 6.91512 10.2903 6.92924C10.1158 6.93037 9.92716 7.02525 9.77071 7.11844C9.22795 7.4415 8.67446 7.7205 8.02722 7.76569C7.12017 7.82894 6.32721 7.55954 5.62405 6.99136C5.55515 6.93545 5.43485 6.92472 5.33827 6.92359C4.69949 6.91681 4.06072 6.92359 3.42251 6.91625C2.39629 6.90552 1.51918 6.16113 1.19838 5.33767C0.867416 4.48823 0.957782 3.6659 1.47795 2.92434C1.94446 2.25958 2.60301 1.87835 3.43042 1.8535C4.01215 1.83599 4.59501 1.83825 5.1773 1.85237C5.41056 1.85802 5.60428 1.81284 5.79066 1.66656C6.39894 1.18931 7.09645 0.974692 7.86908 1.00237C8.58184 1.02835 9.21157 1.28645 9.80008 1.67559C9.9362 1.76539 10.1147 1.83995 10.2734 1.83995C13.6638 1.84955 17.0548 1.84559 20.4452 1.84785C21.1585 1.84785 21.8159 2.04722 22.3282 2.55384C22.745 2.96613 23.0161 3.46201 23.0737 4.07932C23.1251 4.63056 23.0443 5.12983 22.7823 5.61046C22.4118 6.29046 21.8266 6.67847 21.0919 6.8609C20.9337 6.89987 20.766 6.91738 20.6022 6.91738C18.8926 6.92133 17.1835 6.91964 15.4739 6.9202L15.4751 6.92077ZM11.0641 5.21906C11.1369 5.22358 11.1827 5.22923 11.2284 5.22923C14.337 5.22923 17.4462 5.22979 20.5547 5.2281C20.8874 5.2281 21.2907 4.97169 21.3556 4.68986C21.4573 4.25102 21.4256 3.96411 21.0382 3.70261C20.8631 3.58457 20.605 3.54617 20.3842 3.54504C17.3694 3.53543 14.3545 3.53826 11.3397 3.53826C11.251 3.53826 11.1623 3.53826 11.0618 3.53826C11.1019 3.84494 11.1629 4.10756 11.1629 4.37019C11.1629 4.64242 11.1025 4.91464 11.0646 5.2185L11.0641 5.21906ZM7.74934 2.74925C6.79824 2.63742 6.10694 3.56254 6.09508 4.33009C6.07983 5.35857 6.89087 6.06624 7.73805 6.07189C8.52988 6.07754 9.5431 5.42521 9.43692 4.18494C9.38553 3.58514 8.67559 2.61766 7.74878 2.74869L7.74934 2.74925ZM4.44647 5.22867V3.53939C4.16069 3.53939 3.83142 3.51962 3.5061 3.54391C2.97464 3.58344 2.68998 4.00082 2.71427 4.44531C2.73912 4.88979 3.0955 5.22584 3.57105 5.2281C3.87039 5.22979 4.17029 5.2281 4.44647 5.2281V5.22867Z" fill="white"/>
<path d="M8.65158 9.45753C10.3798 9.45753 12.1081 9.46149 13.8363 9.45075C13.9866 9.44963 14.1566 9.38298 14.2825 9.29657C14.9444 8.84191 15.6566 8.56686 16.4727 8.61261C17.1736 8.65158 17.7955 8.90178 18.3721 9.29318C18.4998 9.38016 18.6686 9.44454 18.8211 9.45019C19.3368 9.46939 19.8541 9.45132 20.3709 9.45923C20.8984 9.46713 21.4174 9.53491 21.8738 9.82577C22.551 10.2578 22.9768 10.8486 23.0683 11.6732C23.1248 12.1815 23.0604 12.6497 22.8396 13.1094C22.4838 13.8516 21.8834 14.2961 21.1057 14.4598C20.6578 14.5542 20.1806 14.5197 19.7163 14.5282C19.0945 14.5389 18.5173 14.5321 17.9305 14.9201C16.8624 15.6267 15.7103 15.5256 14.6044 14.9009C14.5807 14.8874 14.5468 14.8846 14.5321 14.8654C14.2373 14.492 13.8267 14.5265 13.4144 14.5271C10.033 14.5321 6.65167 14.5412 3.27029 14.5186C2.71511 14.5146 2.22996 14.2317 1.81427 13.8403C1.15234 13.2179 0.893671 12.4317 1.03939 11.5755C1.21842 10.5261 1.98484 9.69305 3.06019 9.51627C3.27764 9.48069 3.50016 9.46092 3.72043 9.46036C5.36396 9.45584 7.00805 9.4581 8.65158 9.4581V9.45753ZM13.0123 11.1558C13.0196 11.1575 13.0016 11.1508 12.9835 11.1508C9.84723 11.1502 6.71097 11.1485 3.57415 11.1542C3.43465 11.1542 3.28215 11.1909 3.1579 11.2536C2.82411 11.423 2.6383 11.8432 2.72076 12.1843C2.81282 12.565 3.15903 12.8378 3.56116 12.8383C6.66014 12.8395 9.75856 12.84 12.8575 12.8395C12.9225 12.8395 12.9874 12.8338 13.0129 12.8327V11.1558H13.0123ZM16.3107 10.3595C15.372 10.2477 14.6694 11.1694 14.662 11.946C14.6524 12.9767 15.4516 13.6624 16.2824 13.6821C17.0872 13.7008 18.1134 13.0417 18.0033 11.7901C17.9508 11.1937 17.2454 10.2279 16.3107 10.3595ZM19.683 12.8604C20.0501 12.8361 20.4601 12.8434 20.8561 12.7711C21.1729 12.713 21.418 12.3182 21.4225 11.9974C21.4265 11.7059 21.1588 11.2671 20.8899 11.2253C20.4816 11.1615 20.0648 11.1542 19.683 11.1253V12.8598V12.8604Z" fill="white"/>
<path d="M15.4768 22.1403C13.7581 22.1403 12.0389 22.1419 10.3203 22.1386C10.1096 22.1386 9.94639 22.195 9.76227 22.3227C8.47286 23.2184 6.98182 23.2551 5.66531 22.256C5.57833 22.19 5.45125 22.1476 5.34225 22.1453C4.72268 22.1346 4.10254 22.1323 3.48241 22.1403C2.40366 22.1538 1.45765 21.3236 1.14814 20.4352C0.621762 18.9249 1.66718 17.2786 3.09948 17.13C3.72809 17.0651 4.36573 17.0662 4.99886 17.0747C5.35863 17.0792 5.63142 16.9741 5.93527 16.7697C6.68701 16.2636 7.53532 16.0959 8.43728 16.2925C8.96761 16.4082 9.44147 16.6381 9.8724 16.9719C9.96955 17.047 10.1328 17.0634 10.2655 17.064C13.6469 17.0685 17.0282 17.0668 20.4102 17.0685C21.1326 17.0685 21.8013 17.2577 22.3226 17.7716C22.7399 18.1828 23.0144 18.6781 23.0715 19.2954C23.1212 19.8354 23.0472 20.3273 22.7958 20.804C22.4287 21.4998 21.8374 21.8929 21.0953 22.0821C20.9371 22.1222 20.7694 22.1386 20.6056 22.1386C18.896 22.1425 17.1864 22.1408 15.4768 22.1414V22.1403ZM11.1132 20.4419C11.1341 20.4431 11.1799 20.4487 11.2251 20.4487C14.3337 20.4487 17.4428 20.4493 20.5514 20.4476C20.884 20.4476 21.2873 20.1912 21.3523 19.9093C21.4539 19.4705 21.4223 19.1836 21.0348 18.9221C20.8598 18.8041 20.6017 18.7657 20.3808 18.7645C17.366 18.7549 14.3512 18.7577 11.3363 18.7577H11.1132V20.4414V20.4419ZM7.7488 17.9687C6.79375 17.8569 6.10528 18.7832 6.09285 19.5479C6.07591 20.5781 6.88863 21.2846 7.73412 21.2919C8.52877 21.2987 9.54031 20.643 9.43526 19.4067C9.38386 18.8058 8.67223 17.8377 7.7488 17.9687ZM4.44254 18.7589C4.15394 18.7589 3.83427 18.7385 3.51799 18.7634C3.02606 18.8024 2.73915 19.1028 2.71769 19.566C2.69622 20.0268 3.01815 20.4193 3.44231 20.4442C3.78739 20.4645 4.13474 20.4482 4.44254 20.4482V18.7583V18.7589Z" fill="white"/>
<g opacity="0.2">
<path d="M11.0614 5.21936C11.0993 4.9155 11.1591 4.64327 11.1597 4.37105C11.1597 4.10842 11.0987 3.84523 11.0586 3.53912C11.1597 3.53912 11.2478 3.53912 11.3365 3.53912C14.3513 3.53912 17.3661 3.53573 20.381 3.54589C20.6018 3.54646 20.8599 3.58486 21.035 3.70347C21.4219 3.96497 21.4541 4.25188 21.3524 4.69072C21.2874 4.97254 20.8842 5.22896 20.5515 5.22896C17.4429 5.23065 14.3338 5.23009 11.2252 5.23009C11.1795 5.23009 11.1343 5.22444 11.0609 5.21992L11.0614 5.21936Z" fill="white"/>
<path d="M7.74767 2.74945C8.67392 2.61786 9.38442 3.5859 9.43582 4.1857C9.542 5.42597 8.52877 6.0783 7.73694 6.07265C6.88976 6.06644 6.07816 5.35876 6.09398 4.33085C6.10527 3.56331 6.79714 2.63762 7.74824 2.75002L7.74767 2.74945Z" fill="white"/>
<path d="M4.44464 5.22877C4.16846 5.22877 3.86855 5.2299 3.56922 5.22877C3.09367 5.22594 2.73729 4.89046 2.71244 4.44597C2.68758 4.00149 2.9728 3.58467 3.50427 3.54457C3.83015 3.52029 4.15885 3.54006 4.44464 3.54006V5.22933V5.22877Z" fill="white"/>
<path d="M13.0108 11.156V12.8328C12.9853 12.834 12.9204 12.8396 12.8554 12.8396C9.75646 12.8396 6.65804 12.8396 3.55906 12.8385C3.15749 12.8385 2.81071 12.5651 2.71865 12.1845C2.63619 11.8433 2.82257 11.4231 3.1558 11.2537C3.28005 11.1904 3.43254 11.1543 3.57205 11.1543C6.7083 11.1492 9.84457 11.1503 12.9814 11.1509C12.9995 11.1509 13.0181 11.1577 13.0102 11.156H13.0108Z" fill="white"/>
<path d="M16.3108 10.3596C17.2461 10.228 17.9509 11.1938 18.0035 11.7902C18.1136 13.0412 17.0874 13.7009 16.2826 13.6822C15.4518 13.663 14.6526 12.9768 14.6622 11.9461C14.6695 11.1695 15.3721 10.2478 16.3108 10.3596Z" fill="white"/>
<path d="M19.6797 12.8604V11.126C20.0615 11.1548 20.4783 11.1621 20.8866 11.2259C21.1555 11.2677 21.4232 11.706 21.4192 11.998C21.4147 12.3188 21.1696 12.7136 20.8527 12.7718C20.4574 12.8441 20.0468 12.8367 19.6797 12.861V12.8604Z" fill="white"/>
<path d="M11.1133 20.442V18.7584H11.3364C14.3512 18.7584 17.366 18.755 20.3809 18.7651C20.6017 18.7657 20.8598 18.8041 21.0349 18.9227C21.4218 19.1842 21.454 19.4717 21.3523 19.91C21.2868 20.1918 20.8841 20.4476 20.5514 20.4482C17.4428 20.4499 14.3337 20.4493 11.2251 20.4493C11.1794 20.4493 11.1342 20.4437 11.1133 20.4425V20.442Z" fill="white"/>
<path d="M7.74799 17.9691C8.67142 17.838 9.38305 18.8061 9.43445 19.407C9.5395 20.6433 8.52797 21.2985 7.73331 21.2923C6.88782 21.2855 6.07566 20.5784 6.09204 19.5482C6.10447 18.7835 6.79294 17.8573 7.74799 17.9691Z" fill="white"/>
<path d="M4.44272 18.7592V20.4491C4.13491 20.4491 3.78757 20.4654 3.44248 20.4451C3.01833 20.4197 2.69583 20.0272 2.71786 19.5669C2.73932 19.1043 3.02623 18.8033 3.51816 18.7643C3.83444 18.7395 4.15411 18.7598 4.44272 18.7598V18.7592Z" fill="white"/>
</g>
</svg>
