<svg width="19" height="24" viewBox="0 0 19 24" fill="none" xmlns="http://www.w3.org/2000/svg">
<g clip-path="url(#clip0_1445_10199)">
<path d="M6.1254 0C8.12008 0 10.1152 0 12.1099 0C12.1066 0.0108023 12.1033 0.0216047 12.0982 0.0375734C12.1306 0.0403914 12.1644 0.0441487 12.1982 0.0460274C12.2503 0.0488454 12.3043 0.0422701 12.3546 0.0535421C12.4424 0.0732681 12.5274 0.105205 12.6148 0.12775C12.8313 0.18411 13.0187 0.298239 13.1967 0.427397C13.3634 0.548102 13.5067 0.695108 13.6293 0.8609C13.7528 1.02763 13.8542 1.20705 13.9186 1.40478C13.9688 1.55836 14.0182 1.71147 14.0205 1.87679C14.0224 2.00125 14.0515 2.12571 14.0515 2.25018C14.052 2.69683 14.0412 3.14301 14.0435 3.58967C14.0445 3.80947 14.0111 4.01988 13.9388 4.22654C13.8115 4.58959 13.6086 4.90051 13.316 5.15131C13.2813 5.18137 13.247 5.21143 13.2127 5.24149C13.2202 5.25135 13.223 5.25652 13.2272 5.26074C13.5565 5.58857 13.8881 5.91405 14.2149 6.24423C14.7504 6.78528 15.2895 7.32305 15.8132 7.87538C16.1659 8.24736 16.3956 8.69777 16.537 9.18998C16.5778 9.33182 16.6032 9.47836 16.63 9.62395C16.6506 9.73667 16.6741 9.85127 16.6751 9.96493C16.676 10.18 16.6671 10.3956 16.6521 10.6103C16.6408 10.7751 16.6164 10.939 16.5933 11.1029C16.5652 11.304 16.5304 11.5036 16.5018 11.7046C16.4764 11.8816 16.4576 12.0592 16.4322 12.2362C16.4106 12.3879 16.3825 12.5382 16.3613 12.6899C16.3364 12.8651 16.3172 13.0408 16.2928 13.216C16.2712 13.3696 16.243 13.5217 16.2209 13.6753C16.1965 13.8486 16.1777 14.0224 16.1533 14.1957C16.1312 14.3512 16.1025 14.5057 16.0805 14.6607C16.056 14.8316 16.0382 15.004 16.0138 15.175C15.9917 15.3304 15.9621 15.4845 15.94 15.6399C15.9151 15.8151 15.8964 15.9908 15.8719 16.166C15.8461 16.3496 15.8142 16.5328 15.7879 16.7164C15.7587 16.9212 15.7334 17.1269 15.7047 17.3317C15.6789 17.5181 15.6512 17.7041 15.6235 17.8901C15.6089 17.9887 15.5906 18.0864 15.577 18.1851C15.5657 18.2649 15.5587 18.3457 15.5507 18.4171C15.7184 18.473 15.8837 18.5162 16.0396 18.5819C17.1724 19.0615 17.8939 19.8928 18.1785 21.097C18.24 21.3567 18.2663 21.6197 18.2682 21.8842C18.2733 22.5736 18.2701 23.2631 18.2696 23.9526C18.2696 23.9676 18.2677 23.9822 18.2668 23.9995H0C0 23.2499 0 22.4999 0 21.7503C0.0103327 21.7465 0.0300587 21.7437 0.0300587 21.7395C0.0342857 21.6653 0.0361644 21.5906 0.0385127 21.5164C0.0413307 21.4347 0.0333464 21.3506 0.0493151 21.2712C0.0948728 21.0439 0.148415 20.8185 0.234364 20.6015C0.568297 19.7603 1.13284 19.1286 1.93738 18.713C2.16611 18.5951 2.40611 18.5068 2.65597 18.4452C2.70434 18.4335 2.74286 18.4171 2.70763 18.3569C2.70481 18.3527 2.70716 18.3457 2.70622 18.34C2.68885 18.2067 2.67241 18.0728 2.65315 17.9394C2.6292 17.7722 2.60102 17.6059 2.57706 17.4387C2.55358 17.2753 2.53385 17.1109 2.51037 16.9475C2.48689 16.784 2.45965 16.6215 2.43616 16.4586C2.41174 16.289 2.39155 16.119 2.36712 15.9499C2.34458 15.7907 2.31828 15.6315 2.29526 15.4723C2.27178 15.3065 2.25158 15.1407 2.2281 14.9749C2.20509 14.8114 2.17785 14.6489 2.15483 14.4855C2.13182 14.3239 2.11256 14.1614 2.08955 13.9998C2.06607 13.8345 2.03789 13.6701 2.0144 13.5048C1.98998 13.3353 1.96931 13.1652 1.94536 12.9962C1.92282 12.8369 1.89652 12.6777 1.87397 12.5185C1.85049 12.3527 1.83029 12.1869 1.80681 12.0211C1.7838 11.8577 1.75656 11.6952 1.73354 11.5317C1.711 11.3721 1.69503 11.211 1.6692 11.0517C1.63022 10.8136 1.60016 10.575 1.58701 10.3341C1.57104 10.0405 1.59593 9.74982 1.65558 9.4638C1.70865 9.20924 1.79413 8.96313 1.90168 8.72595C2.10035 8.28869 2.38732 7.9139 2.72454 7.57667C3.40603 6.89425 4.08986 6.21464 4.77323 5.53409C4.86857 5.43922 4.96626 5.34716 5.06489 5.25135C5.0292 5.21988 5.00337 5.19593 4.97659 5.17339C4.81127 5.03671 4.67037 4.87796 4.55718 4.6962C4.35288 4.36791 4.22419 4.01378 4.21667 3.62301C4.21151 3.36329 4.21245 3.10356 4.21667 2.84384C4.22137 2.53104 4.20023 2.21777 4.23781 1.90544C4.25331 1.77769 4.27397 1.65323 4.30967 1.52924C4.37918 1.28736 4.48955 1.06614 4.6389 0.865127C4.84603 0.586145 5.10481 0.36775 5.41949 0.219335C5.63131 0.119765 5.84971 0.0380431 6.0883 0.0361644C6.11742 0.0361644 6.12634 0.0263014 6.12493 0.000469667L6.1254 0ZM16.8648 22.5919C16.8648 22.5703 16.8648 22.5548 16.8648 22.5393C16.8615 22.2608 16.8601 21.9823 16.8531 21.7038C16.8507 21.608 16.8418 21.5108 16.8211 21.4178C16.7685 21.1773 16.6826 20.9495 16.553 20.7386C16.3895 20.4733 16.1777 20.2535 15.9189 20.0839C15.7865 19.997 15.6409 19.9256 15.4924 19.8702C15.3506 19.8171 15.205 19.7669 15.0467 19.7664C14.9274 19.7664 14.8086 19.7354 14.6893 19.7354C11.172 19.7335 7.65464 19.7335 4.1373 19.7345C3.88462 19.7345 3.63147 19.7415 3.37879 19.7476C3.22896 19.7514 3.0829 19.7735 2.93777 19.8157C2.53339 19.9332 2.19429 20.1487 1.92 20.4676C1.72509 20.694 1.58607 20.949 1.49589 21.236C1.44 21.4135 1.41933 21.5939 1.40947 21.7747C1.39538 22.0359 1.40571 22.2979 1.40618 22.5595C1.40618 22.5703 1.40853 22.5811 1.40994 22.5919H16.8653H16.8648ZM7.03045 5.67311V14.106H11.2401V5.67311H7.03045ZM5.61957 6.69746C5.4054 6.9027 5.17902 7.11499 4.95828 7.33292C4.52477 7.76031 4.09456 8.19194 3.66153 8.61981C3.41025 8.86826 3.21112 9.15006 3.09699 9.48728C3.01949 9.71507 2.97018 9.94896 2.97722 10.1899C2.98145 10.3332 3.00446 10.4759 3.02137 10.6187C3.03546 10.7366 3.05284 10.8535 3.06928 10.971C3.08055 11.0522 3.09417 11.133 3.10544 11.2142C3.11859 11.311 3.12939 11.4082 3.14301 11.505C3.16086 11.6313 3.18106 11.7577 3.19843 11.8845C3.21581 12.0075 3.23037 12.131 3.24775 12.2541C3.26184 12.3541 3.27875 12.4542 3.29284 12.5547C3.30599 12.6453 3.31585 12.7364 3.329 12.8271C3.34732 12.9515 3.36704 13.076 3.3863 13.2005C3.40039 13.2944 3.41448 13.3888 3.42857 13.4827C3.44172 13.5715 3.45628 13.6603 3.46802 13.749C3.48493 13.8744 3.49855 14.0003 3.51546 14.1257C3.53331 14.2544 3.5535 14.3822 3.57276 14.5108C3.58779 14.6109 3.60282 14.7105 3.61785 14.8105C3.63006 14.8936 3.64321 14.9768 3.65448 15.0599C3.67139 15.1867 3.68595 15.314 3.7038 15.4408C3.72117 15.5657 3.74325 15.6897 3.76063 15.8142C3.778 15.9349 3.79068 16.0565 3.80853 16.1777C3.83389 16.3496 3.86395 16.5205 3.88791 16.692C3.91045 16.8507 3.92501 17.0109 3.94802 17.1701C3.97245 17.3401 4.00438 17.5087 4.02834 17.6787C4.05464 17.8619 4.07577 18.046 4.09926 18.2297C4.11194 18.3288 4.11288 18.3283 4.21432 18.3283C4.66145 18.3283 5.1081 18.3283 5.55522 18.3283H5.6191V6.69793L5.61957 6.69746ZM12.6519 18.326H14.1501C14.1534 18.3053 14.1576 18.2865 14.16 18.2677C14.176 18.1329 14.1886 17.9972 14.2074 17.8629C14.2323 17.6881 14.2629 17.5144 14.2892 17.3396C14.315 17.1668 14.338 16.993 14.3624 16.8202C14.3887 16.6347 14.415 16.4492 14.4418 16.2641C14.478 16.01 14.5151 15.7564 14.5503 15.5023C14.5775 15.3079 14.601 15.113 14.6292 14.9185C14.6625 14.6856 14.6996 14.4531 14.7339 14.2201C14.7621 14.0285 14.7889 13.8369 14.8161 13.6457C14.8518 13.3968 14.888 13.1479 14.9223 12.8989C14.9467 12.7219 14.9674 12.5439 14.9922 12.3668C15.0134 12.2184 15.0397 12.0705 15.0618 11.9225C15.0876 11.7487 15.113 11.575 15.1364 11.4012C15.1595 11.2307 15.1787 11.0593 15.2027 10.8888C15.228 10.7098 15.2712 10.5323 15.2802 10.3529C15.2891 10.1702 15.2839 9.98278 15.2539 9.80243C15.1749 9.32665 14.934 8.93777 14.5912 8.60149C13.9904 8.01252 13.3996 7.4137 12.8041 6.8191C12.7552 6.77026 12.7036 6.72329 12.6524 6.67444V18.3264L12.6519 18.326ZM9.13315 4.26552C10.0701 4.26552 11.0067 4.26552 11.9436 4.26552C11.9859 4.26552 12.0282 4.26176 12.07 4.25519C12.3959 4.20493 12.6514 3.9128 12.6495 3.55867C12.6472 3.0782 12.6505 2.59773 12.6472 2.11726C12.6472 2.0454 12.6298 1.9726 12.6134 1.90215C12.5481 1.62176 12.2691 1.40665 11.9577 1.40665C10.08 1.40571 8.20274 1.40665 6.32501 1.40618C6.17988 1.40618 6.04556 1.44235 5.92767 1.52642C5.73605 1.66262 5.62427 1.8472 5.62286 2.08626C5.62004 2.58599 5.62286 3.08618 5.62145 3.58591C5.62145 3.70145 5.65151 3.80806 5.70834 3.90575C5.83092 4.11663 6.01456 4.25941 6.25879 4.26176C7.21691 4.27115 8.1755 4.26552 9.13362 4.26552H9.13315ZM11.2396 18.3269V15.5192H7.02998V18.3269H11.2396Z" fill="#888888"/>
<path d="M0 21.4924C0.012681 21.5004 0.0258317 21.5084 0.0385127 21.5164C0.0361644 21.5906 0.0342857 21.6653 0.0300587 21.7395C0.0300587 21.7437 0.0103327 21.7465 0 21.7503C0 21.6643 0 21.5784 0 21.4924Z" fill="#6B6867"/>
<g opacity="0.2">
<path d="M16.8652 22.592H1.40985C1.40845 22.5816 1.4061 22.5704 1.4061 22.5596C1.4061 22.2979 1.39576 22.0354 1.40939 21.7747C1.41925 21.5944 1.43991 21.4136 1.4958 21.236C1.58598 20.9491 1.725 20.694 1.91991 20.4677C2.1942 20.1488 2.5333 19.9332 2.93768 19.8158C3.08281 19.7735 3.22935 19.7514 3.3787 19.7477C3.63138 19.7415 3.88453 19.735 4.13721 19.7345C7.65455 19.7336 11.1719 19.7336 14.6892 19.7354C14.8085 19.7354 14.9274 19.766 15.0466 19.7664C15.2045 19.7669 15.3501 19.8176 15.4924 19.8702C15.6408 19.9257 15.7864 19.997 15.9188 20.0839C16.1776 20.2535 16.3894 20.4733 16.5529 20.7387C16.6825 20.9495 16.7689 21.1773 16.821 21.4178C16.8412 21.5113 16.8506 21.6085 16.853 21.7038C16.86 21.9823 16.8614 22.2608 16.8647 22.5394C16.8647 22.5549 16.8647 22.5704 16.8647 22.592H16.8652Z" fill="#888888"/>
<path d="M7.03125 5.6731H11.2409V14.106H7.03125V5.6731Z" fill="#888888"/>
<path d="M5.61911 6.69749V18.3279H5.55523C5.10811 18.3279 4.66146 18.3279 4.21433 18.3279C4.11289 18.3279 4.11195 18.3279 4.09927 18.2292C4.07531 18.0456 4.05418 17.8615 4.02835 17.6783C4.00392 17.5083 3.97199 17.3397 3.94803 17.1697C3.92549 17.0109 3.91046 16.8508 3.88791 16.6915C3.86396 16.5196 3.8339 16.3487 3.80854 16.1773C3.79069 16.0566 3.77801 15.9349 3.76064 15.8137C3.74279 15.6893 3.72118 15.5648 3.70381 15.4403C3.68596 15.3135 3.6714 15.1863 3.65449 15.0594C3.64322 14.9763 3.63007 14.8932 3.61786 14.8101C3.60283 14.71 3.5878 14.6104 3.57277 14.5104C3.55351 14.3822 3.53332 14.254 3.51547 14.1253C3.49809 13.9999 3.48447 13.874 3.46803 13.7486C3.45629 13.6598 3.44173 13.5711 3.42858 13.4823C3.41449 13.3879 3.40087 13.294 3.38631 13.2C3.36752 13.0756 3.34733 12.9511 3.32901 12.8267C3.31586 12.736 3.30553 12.6449 3.29285 12.5542C3.27876 12.4542 3.26185 12.3542 3.24776 12.2537C3.23038 12.1306 3.21582 12.0071 3.19844 11.884C3.1806 11.7577 3.1604 11.6313 3.14302 11.5045C3.1294 11.4078 3.1186 11.3106 3.10545 11.2138C3.09418 11.1326 3.08056 11.0518 3.06928 10.9705C3.05285 10.8531 3.03547 10.7357 3.02138 10.6183C3.00447 10.4755 2.98099 10.3327 2.97723 10.1895C2.97019 9.94853 3.0195 9.71463 3.09699 9.48685C3.21159 9.14962 3.41026 8.86782 3.66154 8.61937C4.09457 8.1915 4.52431 7.75988 4.95829 7.33248C5.1795 7.11456 5.40588 6.90227 5.61958 6.69702L5.61911 6.69749Z" fill="#888888"/>
<path d="M12.6509 18.326V6.67407C12.7025 6.72292 12.7537 6.76988 12.8026 6.81873C13.3981 7.41333 13.9894 8.01168 14.5896 8.60112C14.9325 8.9374 15.1734 9.32628 15.2523 9.80206C15.2824 9.98241 15.2876 10.1693 15.2786 10.3525C15.2697 10.5319 15.2265 10.7095 15.2012 10.8884C15.1772 11.0589 15.1579 11.2303 15.1349 11.4008C15.1114 11.5746 15.0861 11.7484 15.0603 11.9221C15.0382 12.0705 15.0119 12.218 14.9907 12.3664C14.9654 12.5435 14.9452 12.721 14.9208 12.8986C14.8865 13.1475 14.8498 13.3964 14.8146 13.6453C14.7874 13.837 14.7606 14.0286 14.7324 14.2197C14.6981 14.4527 14.661 14.6852 14.6277 14.9181C14.6 15.1126 14.576 15.3075 14.5488 15.5019C14.5136 15.756 14.4765 16.0096 14.4403 16.2637C14.414 16.4493 14.3872 16.6348 14.3609 16.8198C14.3365 16.9931 14.3135 17.1664 14.2877 17.3393C14.2618 17.514 14.2308 17.6878 14.2059 17.8625C14.1871 17.9968 14.1745 18.1325 14.1585 18.2673C14.1561 18.2866 14.1519 18.3054 14.1486 18.3256H12.6504L12.6509 18.326Z" fill="#888888"/>
<path d="M9.13327 4.26558C8.17515 4.26558 7.21656 4.27122 6.25844 4.26183C6.01468 4.25948 5.83104 4.1167 5.70799 3.90582C5.65116 3.80813 5.62063 3.70151 5.6211 3.58598C5.62251 3.08625 5.61969 2.58605 5.62251 2.08633C5.62392 1.84774 5.7357 1.66316 5.92732 1.52648C6.04521 1.44241 6.18 1.40625 6.32466 1.40625C8.20239 1.40625 10.0797 1.40625 11.9574 1.40672C12.2688 1.40672 12.5478 1.62183 12.613 1.90222C12.6295 1.97267 12.6464 2.04547 12.6469 2.11733C12.6497 2.5978 12.6469 3.07827 12.6492 3.55874C12.6511 3.91239 12.3956 4.20453 12.0696 4.25525C12.0278 4.26183 11.9856 4.26558 11.9433 4.26558C11.0063 4.26605 10.0698 4.26558 9.1328 4.26558H9.13327Z" fill="#888888"/>
<path d="M11.2409 18.327H7.03125V15.5193H11.2409V18.327Z" fill="#888888"/>
</g>
</g>
<defs>
<clipPath id="clip0_1445_10199">
<rect width="18.2715" height="24" fill="white"/>
</clipPath>
</defs>
</svg>
