<svg width="25" height="24" viewBox="0 0 25 24" fill="none" xmlns="http://www.w3.org/2000/svg">
<g clip-path="url(#clip0_1435_10083)">
<path d="M24.0111 11.0607V12.9829C23.9642 13.2252 23.9064 13.4657 23.873 13.7099C23.7307 14.7468 23.4499 15.7406 23.0432 16.708C22.2392 18.6199 20.9881 20.1814 19.3848 21.4686C18.5122 22.1693 17.542 22.7193 16.5008 23.1321C15.5404 23.5129 14.5532 23.8018 13.5196 23.9079C13.328 23.9276 13.1387 23.9689 12.9485 23.9999H10.9798C10.7896 23.9675 10.598 23.9417 10.4092 23.9018C9.75924 23.7642 9.09941 23.6595 8.46306 23.474C6.74139 22.9729 5.22824 22.0792 3.90999 20.8755C3.37508 20.3871 2.88291 19.8381 2.44052 19.2637C1.59471 18.1653 0.966816 16.9437 0.549784 15.6152C0.270354 14.7257 0.0641859 13.8184 0.0233281 12.8922C-0.0222261 11.8605 -0.0179994 10.8254 0.193334 9.79925C0.387292 8.85811 0.651224 7.94374 1.04712 7.0707C1.68018 5.67449 2.54008 4.43279 3.64888 3.37001C3.89355 3.1352 4.14199 2.89897 4.41719 2.70314C5.02208 2.27155 5.62743 1.83479 6.26519 1.45486C7.21478 0.889423 8.25266 0.526399 9.32859 0.2836C10.0819 0.114063 10.8483 0.00792694 11.6232 0.000412849C11.9792 -0.00287456 12.3366 0.0135625 12.6907 0.0464366C13.2232 0.0957479 13.7563 0.153043 14.2851 0.23335C15.3563 0.396781 16.3698 0.75464 17.3339 1.23601C18.214 1.67558 19.0382 2.20674 19.7807 2.86234C20.5725 3.56115 21.2957 4.3196 21.8964 5.18936C22.3979 5.91588 22.8131 6.69124 23.1451 7.50934C23.5049 8.39459 23.7406 9.31413 23.8716 10.2614C23.9087 10.5291 23.9637 10.7944 24.0106 11.0607H24.0111ZM19.025 20.002C18.694 19.6812 18.4159 19.4121 18.1539 19.1585C18.5075 18.8148 18.8395 18.4921 19.2138 18.1282C19.4599 18.3827 19.729 18.6607 20.0366 18.9787C20.5495 18.2103 21.0553 17.4528 21.5723 16.6784C21.1572 16.5018 20.7965 16.3483 20.4274 16.1914C20.6129 15.7429 20.7862 15.3245 20.9642 14.8943C21.3399 15.0408 21.694 15.1789 22.0598 15.3212C22.3425 14.4411 22.5017 13.5892 22.5628 12.6903H21.4028V11.2931H22.5651C22.49 10.3459 22.3317 9.44187 22.0058 8.54722C21.6381 8.70173 21.291 8.84778 20.9303 8.99947C20.7636 8.60874 20.5927 8.21895 20.4358 7.82352C20.4184 7.77937 20.4687 7.66807 20.5152 7.646C20.8186 7.50229 21.1299 7.37455 21.4573 7.23366C21.0618 6.42449 20.5593 5.71535 19.9634 5.02499C19.6896 5.31663 19.4247 5.59935 19.1941 5.84496C18.8363 5.49039 18.5066 5.164 18.1281 4.78877C18.3896 4.54033 18.67 4.27452 18.9898 3.97067C18.2173 3.45595 17.457 2.94922 16.6708 2.42558C16.4909 2.84825 16.3378 3.20846 16.1824 3.5743C15.7259 3.38457 15.3004 3.20752 14.8853 3.03517C15.0351 2.66087 15.1769 2.3063 15.3211 1.94609C14.4485 1.66009 13.5971 1.5037 12.7066 1.44171V2.60264H11.301V1.43701C10.3425 1.49337 9.43707 1.68404 8.55229 1.98084C8.70351 2.35044 8.84863 2.70548 8.99562 3.06428C8.54384 3.25777 8.13526 3.43247 7.70601 3.6161C7.5764 3.31553 7.43269 3.02906 7.33078 2.7285C7.2608 2.52186 7.15138 2.55567 7.02411 2.62987C6.74233 2.79331 6.45727 2.95345 6.19052 3.13942C5.79838 3.41369 5.42126 3.70955 5.01597 4.01247C5.32921 4.31209 5.59972 4.57086 5.87117 4.83056C5.52364 5.17621 5.19302 5.50542 4.82765 5.86892C4.57264 5.59512 4.31387 5.3171 4.03961 5.02311C3.40232 5.73225 2.90827 6.50245 2.4748 7.35013C2.83454 7.50182 3.17972 7.64741 3.56059 7.80849C3.38588 8.24431 3.21541 8.66979 3.03554 9.11876C2.7176 8.9882 2.41844 8.86751 2.12117 8.74306C2.01456 8.69844 1.91782 8.68341 1.88682 8.82477C1.71024 9.63723 1.53789 10.4511 1.35614 11.3007H2.61287V12.7124H1.41766C1.451 12.9608 1.46697 13.1905 1.51441 13.4135C1.64637 14.0353 1.79384 14.6538 1.92862 15.2751C1.96055 15.4221 2.00705 15.4494 2.14888 15.3789C2.37759 15.2653 2.62085 15.1798 2.85661 15.0798C2.96932 15.0319 3.07358 14.9981 3.13698 15.1479C3.29806 15.5287 3.45961 15.9087 3.62258 16.2924C3.24875 16.4506 2.89418 16.6009 2.52787 16.7559C2.95664 17.5524 3.42627 18.3014 4.05182 18.9749C4.33266 18.6818 4.59142 18.4118 4.85207 18.1404C5.19584 18.4841 5.52646 18.8143 5.8923 19.1806C5.61475 19.4441 5.33908 19.7056 5.05119 19.9785C5.74765 20.6073 6.51738 21.1004 7.34863 21.5297C7.46979 21.2432 7.6027 20.9774 7.6938 20.698C7.76002 20.4956 7.84737 20.4416 8.04227 20.5266C8.39449 20.6797 8.75188 20.8215 9.11209 20.9704C8.96275 21.34 8.81857 21.6959 8.6697 22.0646C9.53804 22.3393 10.3961 22.5474 11.3189 22.5516V21.3921H12.7156V22.5596C13.6633 22.4995 14.5603 22.3182 15.4479 22.0139C15.315 21.6945 15.1835 21.3883 15.0623 21.0784C15.0426 21.0277 15.0487 20.9168 15.075 20.9046C15.4765 20.72 15.8832 20.5477 16.2998 20.3673C16.4303 20.6853 16.5524 20.9718 16.6647 21.262C16.7201 21.4052 16.7882 21.4729 16.9371 21.3728C16.9878 21.3385 17.0474 21.3174 17.0982 21.2836C17.7237 20.8684 18.3483 20.4524 19.025 20.002Z" fill="#888888"/>
<path d="M5.39786 11.984C5.35277 8.37259 8.38048 5.33455 12.0248 5.38715C15.7241 5.44069 18.2728 8.24344 18.5738 11.2773C18.7819 13.3737 18.1493 15.201 16.6629 16.6855C15.385 17.962 13.8104 18.5927 11.9896 18.6157C8.37766 18.6608 5.32225 15.5692 5.39786 11.9845V11.984ZM9.45828 16.5122C9.50478 16.5512 9.52591 16.5761 9.55268 16.5902C10.5121 17.0936 11.5209 17.3059 12.6076 17.165C13.2097 17.0871 13.7676 16.8945 14.3171 16.6573C14.4326 16.6076 14.5021 16.5615 14.3964 16.4197C13.8723 15.7176 13.3539 15.0113 12.8429 14.2993C12.7668 14.1932 12.7109 14.1955 12.6015 14.2294C12.1868 14.3576 11.7679 14.3951 11.3387 14.2749C11.2546 14.2514 11.1025 14.2848 11.055 14.3477C10.5178 15.0587 9.9946 15.7805 9.45828 16.5122ZM17.1048 10.9621C16.2205 11.2317 15.3451 11.497 14.4721 11.7694C14.4087 11.7892 14.3166 11.8624 14.3147 11.9136C14.2974 12.4203 14.1649 12.8881 13.8813 13.3075C14.4678 14.1105 15.0492 14.9066 15.6414 15.7176C16.9343 14.3646 17.4143 12.7918 17.1048 10.9617V10.9621ZM8.31661 15.6777C8.88627 14.8943 9.44467 14.1265 10.0007 13.3624C9.67384 12.8998 9.51793 12.3973 9.52873 11.846C9.53155 11.7112 9.50525 11.6445 9.35637 11.6055C8.95531 11.5003 8.56129 11.3679 8.16492 11.2463C7.75071 11.119 7.33696 10.9908 6.9204 10.8626C6.50055 12.9834 7.26276 14.5572 8.31661 15.6782V15.6777ZM16.5953 9.62603C16.1256 8.50174 14.6256 7.06702 12.6569 6.85427C12.6508 6.87447 12.6396 6.8956 12.6396 6.91673C12.6382 7.79025 12.6344 8.66423 12.6452 9.53774C12.6461 9.60819 12.7349 9.7101 12.8072 9.74156C13.1341 9.8848 13.4145 10.0825 13.6648 10.3375C13.7361 10.4103 13.8954 10.4667 13.9874 10.4394C14.86 10.1793 15.7269 9.89983 16.5957 9.62603H16.5953ZM7.46048 9.54573C8.29736 9.80027 9.13612 10.0501 9.97065 10.3145C10.1017 10.3558 10.1679 10.3314 10.2722 10.252C10.5234 10.0614 10.7906 9.88903 11.0644 9.7317C11.1729 9.66924 11.2208 9.61523 11.2199 9.4889C11.2142 8.85725 11.2171 8.22512 11.2171 7.59347C11.2171 7.36147 11.2171 7.12995 11.2171 6.89983C10.0134 6.82563 7.72018 8.44632 7.46001 9.54526L7.46048 9.54573ZM11.9051 11.0143C11.3246 10.948 10.932 11.4952 10.9414 11.9446C10.9531 12.4997 11.3406 12.9313 11.8999 12.9238C12.5311 12.9158 12.881 12.4955 12.888 11.9488C12.8941 11.4482 12.5222 10.9776 11.9051 11.0138V11.0143Z" fill="#888888"/>
<g opacity="0.2">
<path d="M19.0244 20.002C18.3481 20.4524 17.723 20.8684 17.0975 21.2836C17.0463 21.3174 16.9871 21.3385 16.9364 21.3728C16.788 21.4733 16.7194 21.4052 16.664 21.262C16.5518 20.9718 16.4297 20.6853 16.2991 20.3673C15.8825 20.5477 15.4759 20.72 15.0743 20.9046C15.0475 20.9168 15.0414 21.0272 15.0616 21.0784C15.1828 21.3883 15.3143 21.6945 15.4472 22.0139C14.5596 22.3182 13.6631 22.4995 12.7149 22.5596V21.3921H11.3182V22.5516C10.3954 22.5474 9.53737 22.3393 8.66902 22.0646C8.8179 21.6959 8.96207 21.34 9.11142 20.9704C8.75168 20.822 8.39429 20.6797 8.0416 20.5266C7.8467 20.442 7.75935 20.4956 7.69313 20.698C7.60202 20.9774 7.46912 21.2432 7.34795 21.5297C6.51671 21.1009 5.74698 20.6078 5.05052 19.9785C5.33794 19.7056 5.61361 19.4441 5.89163 19.1806C5.52579 18.8148 5.19517 18.4841 4.8514 18.1404C4.59075 18.4123 4.33199 18.6823 4.05115 18.9749C3.4256 18.3014 2.95597 17.5519 2.5272 16.7559C2.89351 16.6009 3.24808 16.4506 3.62191 16.2924C3.45894 15.9087 3.29739 15.5287 3.13631 15.1479C3.07291 14.9981 2.96865 15.0319 2.85594 15.0798C2.62018 15.1798 2.37738 15.2653 2.14821 15.3789C2.00638 15.4494 1.95988 15.4221 1.92795 15.2751C1.79316 14.6538 1.6457 14.0353 1.51373 13.4135C1.4663 13.1905 1.45033 12.9608 1.41699 12.7124H2.6122V11.3007H1.35547C1.53722 10.4511 1.71004 9.63723 1.88615 8.82477C1.91715 8.68294 2.01389 8.69797 2.1205 8.74305C2.41777 8.86751 2.71693 8.98867 3.03487 9.11876C3.21474 8.66979 3.38521 8.24431 3.55991 7.80849C3.17904 7.64788 2.83387 7.50229 2.47413 7.35013C2.90807 6.50245 3.40165 5.73225 4.03894 5.02311C4.3132 5.31757 4.5715 5.59512 4.82698 5.86892C5.19235 5.50542 5.52297 5.17621 5.8705 4.83056C5.59858 4.57039 5.32854 4.31209 5.0153 4.01247C5.42059 3.70955 5.7977 3.41369 6.18985 3.13942C6.45613 2.95298 6.74166 2.7933 7.02344 2.62987C7.15118 2.55567 7.26013 2.52186 7.33011 2.7285C7.43202 3.02906 7.57619 3.31553 7.70534 3.6161C8.13412 3.43247 8.54316 3.2573 8.99495 3.06428C8.84842 2.70548 8.70284 2.35044 8.55162 1.98084C9.4364 1.68404 10.3418 1.4929 11.3004 1.43701V2.60263H12.706V1.44171C13.5959 1.5037 14.4478 1.65962 15.3204 1.94609C15.1762 2.3063 15.0344 2.66134 14.8846 3.03516C15.3002 3.20799 15.7257 3.38457 16.1817 3.5743C16.3372 3.20846 16.4903 2.84825 16.6701 2.42558C17.4563 2.94922 18.2161 3.45595 18.9892 3.97067C18.6693 4.27452 18.389 4.54033 18.1274 4.78876C18.5059 5.164 18.8356 5.48992 19.1934 5.84496C19.424 5.59935 19.6894 5.31663 19.9627 5.02499C20.5587 5.71535 21.0612 6.42449 21.4566 7.23366C21.1293 7.37455 20.8179 7.50229 20.5145 7.646C20.468 7.66807 20.4178 7.77984 20.4351 7.82352C20.5915 8.21895 20.763 8.60874 20.9297 8.99947C21.2903 8.84778 21.6374 8.70173 22.0051 8.54722C22.331 9.44186 22.4893 10.3459 22.5645 11.2931H21.4021V12.6903H22.5621C22.5011 13.5892 22.3418 14.4411 22.0591 15.3212C21.6933 15.1789 21.3392 15.0403 20.9635 14.8943C20.7855 15.324 20.6127 15.7429 20.4267 16.1914C20.7958 16.3483 21.1565 16.5018 21.5717 16.6784C21.0546 17.4528 20.5488 18.2103 20.036 18.9787C19.7284 18.6607 19.4593 18.3827 19.2132 18.1282C18.8389 18.4921 18.5068 18.8148 18.1532 19.1585C18.4153 19.4121 18.6928 19.6812 19.0244 20.002ZM5.39758 11.9835C5.32197 15.5682 8.37738 18.6598 11.9893 18.6147C13.8101 18.5921 15.3852 17.961 16.6626 16.6845C18.1485 15.2 18.7816 13.3727 18.5735 11.2762C18.2725 8.24243 15.7238 5.43967 12.0245 5.38614C8.3802 5.33354 5.35249 8.37158 5.39758 11.983V11.9835Z" fill="#888888"/>
<path d="M9.45703 16.5116C9.99335 15.7794 10.5165 15.0576 11.0538 14.3471C11.1012 14.2846 11.2534 14.2508 11.3374 14.2743C11.7662 14.3945 12.1851 14.3569 12.6003 14.2287C12.7097 14.1949 12.7656 14.1926 12.8417 14.2987C13.3526 15.0107 13.8711 15.717 14.3952 16.4191C14.5013 16.5609 14.4314 16.6069 14.3158 16.6567C13.7664 16.8939 13.2084 17.0864 12.6064 17.1644C11.5196 17.3053 10.5109 17.093 9.55143 16.5895C9.52466 16.5755 9.50352 16.5506 9.45703 16.5116Z" fill="#888888"/>
<path d="M17.1044 10.9617C17.4134 12.7918 16.9339 14.3641 15.641 15.7176C15.0488 14.9066 14.4674 14.1105 13.8809 13.3075C14.1645 12.8881 14.2974 12.4203 14.3143 11.9136C14.3162 11.8624 14.4083 11.7892 14.4717 11.7694C15.3447 11.4966 16.2201 11.2317 17.1044 10.9621V10.9617Z" fill="#888888"/>
<path d="M8.31636 15.6772C7.26251 14.5557 6.5003 12.982 6.92014 10.8616C7.33624 10.9903 7.75045 11.118 8.16467 11.2453C8.56103 11.3674 8.95505 11.4993 9.35612 11.6045C9.50499 11.6435 9.53129 11.7102 9.52847 11.845C9.51767 12.3963 9.67359 12.8993 10.0005 13.3614C9.44441 14.1255 8.88602 14.8934 8.31636 15.6767V15.6772Z" fill="#888888"/>
<path d="M16.5945 9.62505C15.7257 9.89931 14.8592 10.1787 13.9862 10.4389C13.8941 10.4662 13.7349 10.4098 13.6635 10.337C13.4132 10.082 13.1328 9.88382 12.806 9.74105C12.7337 9.70958 12.6449 9.60767 12.644 9.53723C12.6332 8.66372 12.6374 7.7902 12.6383 6.91622C12.6383 6.89509 12.6501 6.87395 12.6557 6.85376C14.6249 7.06697 16.1244 8.50169 16.594 9.62552L16.5945 9.62505Z" fill="#888888"/>
<path d="M7.46094 9.54511C7.72111 8.44617 10.0143 6.82548 11.218 6.89968C11.218 7.1298 11.218 7.36132 11.218 7.59332C11.218 8.22497 11.2147 8.8571 11.2208 9.48875C11.2217 9.61508 11.1738 9.66956 11.0654 9.73155C10.7916 9.88888 10.5243 10.0612 10.2731 10.2519C10.1684 10.3313 10.1021 10.3557 9.97158 10.3144C9.13705 10.05 8.29829 9.80011 7.46141 9.54558L7.46094 9.54511Z" fill="#888888"/>
<path d="M11.9053 11.0136C12.5224 10.9775 12.8943 11.448 12.8882 11.9487C12.8812 12.4948 12.5313 12.9152 11.9001 12.9236C11.3408 12.9307 10.9538 12.4995 10.9416 11.9444C10.9317 11.495 11.3243 10.9474 11.9053 11.0141V11.0136Z" fill="#888888"/>
</g>
</g>
<defs>
<clipPath id="clip0_1435_10083">
<rect width="24.0113" height="24" fill="white"/>
</clipPath>
</defs>
</svg>
